<svg xmlns="http://www.w3.org/2000/svg" viewBox="0 0 800 500" width="800" height="500">
<defs>
  <linearGradient id="gG" x1="0" y1="0" x2="0" y2="1">
    <stop offset="0%" stop-color="#58A6FF"/>
    <stop offset="100%" stop-color="#1158A6"/>
  </linearGradient>
  <linearGradient id="gQ" x1="0" y1="0" x2="0" y2="1">
    <stop offset="0%" stop-color="#FF7B54"/>
    <stop offset="100%" stop-color="#A63011"/>
  </linearGradient>
  <linearGradient id="bgG" x1="0" y1="0" x2="1" y2="1">
    <stop offset="0%" stop-color="#0D1117"/>
    <stop offset="100%" stop-color="#161B22"/>
  </linearGradient>
  <filter id="shadow" x="-5%" y="-5%" width="110%" height="120%">
    <feDropShadow dx="0" dy="2" stdDeviation="4" flood-color="#000" flood-opacity="0.4"/>
  </filter>
  <filter id="glow">
    <feGaussianBlur stdDeviation="6" result="blur"/>
    <feComposite in="SourceGraphic" in2="blur" operator="over"/>
  </filter>
  
</defs>
<rect width="800" height="500" fill="url(#bgG)" rx="12"/>
<defs><linearGradient id="topbar6" x1="0" y1="0" x2="1" y2="0"><stop offset="0%" stop-color="#58A6FF"/><stop offset="50%" stop-color="#8B5CF6"/><stop offset="100%" stop-color="#FF7B54"/></linearGradient></defs>
<rect x="0" y="0" width="800" height="4" fill="url(#topbar6)" rx="2"/>
<text x="400" y="34" text-anchor="middle" font-family="system-ui,-apple-system,'Segoe UI',sans-serif" font-size="18" font-weight="700" fill="#E6EDF3">Quality vs Cost per Prompt</text>
<text x="400" y="54" text-anchor="middle" font-family="system-ui,-apple-system,'Segoe UI',sans-serif" font-size="12" font-weight="normal" fill="#8B949E">Each dot = one API call. Top-left corner = best (high quality, low cost).</text>
<line x1="80" y1="70" x2="80" y2="420" stroke="#21262D" stroke-width="1" stroke-dasharray="2,3"/>
<text x="80" y="435" text-anchor="middle" font-family="system-ui,-apple-system,'Segoe UI',sans-serif" font-size="9" font-weight="normal" fill="#484F58">$0.0000</text>
<line x1="212" y1="70" x2="212" y2="420" stroke="#21262D" stroke-width="1" stroke-dasharray="2,3"/>
<text x="212" y="435" text-anchor="middle" font-family="system-ui,-apple-system,'Segoe UI',sans-serif" font-size="9" font-weight="normal" fill="#484F58">$0.0024</text>
<line x1="344" y1="70" x2="344" y2="420" stroke="#21262D" stroke-width="1" stroke-dasharray="2,3"/>
<text x="344" y="435" text-anchor="middle" font-family="system-ui,-apple-system,'Segoe UI',sans-serif" font-size="9" font-weight="normal" fill="#484F58">$0.0048</text>
<line x1="476" y1="70" x2="476" y2="420" stroke="#21262D" stroke-width="1" stroke-dasharray="2,3"/>
<text x="476" y="435" text-anchor="middle" font-family="system-ui,-apple-system,'Segoe UI',sans-serif" font-size="9" font-weight="normal" fill="#484F58">$0.0072</text>
<line x1="608" y1="70" x2="608" y2="420" stroke="#21262D" stroke-width="1" stroke-dasharray="2,3"/>
<text x="608" y="435" text-anchor="middle" font-family="system-ui,-apple-system,'Segoe UI',sans-serif" font-size="9" font-weight="normal" fill="#484F58">$0.0096</text>
<line x1="740" y1="70" x2="740" y2="420" stroke="#21262D" stroke-width="1" stroke-dasharray="2,3"/>
<text x="740" y="435" text-anchor="middle" font-family="system-ui,-apple-system,'Segoe UI',sans-serif" font-size="9" font-weight="normal" fill="#484F58">$0.0120</text>
<line x1="80" y1="70" x2="740" y2="70" stroke="#21262D" stroke-width="1" stroke-dasharray="2,3"/>
<text x="75" y="74" text-anchor="end" font-family="system-ui,-apple-system,'Segoe UI',sans-serif" font-size="9" font-weight="normal" fill="#484F58">1.00</text>
<line x1="80" y1="140" x2="740" y2="140" stroke="#21262D" stroke-width="1" stroke-dasharray="2,3"/>
<text x="75" y="144" text-anchor="end" font-family="system-ui,-apple-system,'Segoe UI',sans-serif" font-size="9" font-weight="normal" fill="#484F58">0.80</text>
<line x1="80" y1="210" x2="740" y2="210" stroke="#21262D" stroke-width="1" stroke-dasharray="2,3"/>
<text x="75" y="214" text-anchor="end" font-family="system-ui,-apple-system,'Segoe UI',sans-serif" font-size="9" font-weight="normal" fill="#484F58">0.60</text>
<line x1="80" y1="280" x2="740" y2="280" stroke="#21262D" stroke-width="1" stroke-dasharray="2,3"/>
<text x="75" y="284" text-anchor="end" font-family="system-ui,-apple-system,'Segoe UI',sans-serif" font-size="9" font-weight="normal" fill="#484F58">0.40</text>
<line x1="80" y1="350" x2="740" y2="350" stroke="#21262D" stroke-width="1" stroke-dasharray="2,3"/>
<text x="75" y="354" text-anchor="end" font-family="system-ui,-apple-system,'Segoe UI',sans-serif" font-size="9" font-weight="normal" fill="#484F58">0.20</text>
<line x1="80" y1="420" x2="740" y2="420" stroke="#21262D" stroke-width="1" stroke-dasharray="2,3"/>
<text x="75" y="424" text-anchor="end" font-family="system-ui,-apple-system,'Segoe UI',sans-serif" font-size="9" font-weight="normal" fill="#484F58">0.00</text>
<line x1="80" y1="420" x2="740" y2="420" stroke="#30363D" stroke-width="1"/>
<line x1="80" y1="70" x2="80" y2="420" stroke="#30363D" stroke-width="1"/>
<text x="400" y="452" text-anchor="middle" font-family="system-ui,-apple-system,'Segoe UI',sans-serif" font-size="11" font-weight="normal" fill="#8B949E">Cost per Call (USD)</text>
<text x="20" y="245" text-anchor="middle" font-family="system-ui,-apple-system,'Segoe UI',sans-serif" font-size="11" fill="#8B949E" transform="rotate(-90,20,245)">Quality Score</text>
<text x="88" y="84" text-anchor="start" font-family="system-ui,-apple-system,'Segoe UI',sans-serif" font-size="9" font-weight="normal" fill="#3FB950" opacity="0.6">← Best value zone</text>
<circle cx="146" cy="73" r="7" fill="#FF7B54" stroke="#161B22" stroke-width="1.5"/>
<circle cx="152" cy="73" r="7" fill="#FF7B54" stroke="#161B22" stroke-width="1.5"/>
<circle cx="178" cy="73" r="7" fill="#FF7B54" stroke="#161B22" stroke-width="1.5"/>
<circle cx="138" cy="73" r="7" fill="#FF7B54" stroke="#161B22" stroke-width="1.5"/>
<circle cx="144" cy="73" r="7" fill="#FF7B54" stroke="#161B22" stroke-width="1.5"/>
<circle cx="131" cy="165" r="7" fill="#FF7B54" stroke="#161B22" stroke-width="1.5"/>
<circle cx="216" cy="144" r="7" fill="#FF7B54" stroke="#161B22" stroke-width="1.5"/>
<circle cx="247" cy="165" r="7" fill="#FF7B54" stroke="#161B22" stroke-width="1.5"/>
<circle cx="648" cy="186" r="7" fill="#FF7B54" stroke="#161B22" stroke-width="1.5"/>
<circle cx="266" cy="165" r="7" fill="#FF7B54" stroke="#161B22" stroke-width="1.5"/>
<circle cx="196" cy="193" r="7" fill="#FF7B54" stroke="#161B22" stroke-width="1.5"/>
<circle cx="131" cy="158" r="7" fill="#FF7B54" stroke="#161B22" stroke-width="1.5"/>
<circle cx="131" cy="158" r="7" fill="#FF7B54" stroke="#161B22" stroke-width="1.5"/>
<circle cx="395" cy="140" r="7" fill="#FF7B54" stroke="#161B22" stroke-width="1.5"/>
<circle cx="187" cy="176" r="7" fill="#FF7B54" stroke="#161B22" stroke-width="1.5"/>
<circle cx="93" cy="73" r="7" fill="#58A6FF" stroke="#161B22" stroke-width="1.5"/>
<circle cx="93" cy="73" r="7" fill="#58A6FF" stroke="#161B22" stroke-width="1.5"/>
<circle cx="93" cy="73" r="7" fill="#58A6FF" stroke="#161B22" stroke-width="1.5"/>
<circle cx="93" cy="73" r="7" fill="#58A6FF" stroke="#161B22" stroke-width="1.5"/>
<circle cx="93" cy="73" r="7" fill="#58A6FF" stroke="#161B22" stroke-width="1.5"/>
<circle cx="88" cy="123" r="7" fill="#58A6FF" stroke="#161B22" stroke-width="1.5"/>
<circle cx="93" cy="144" r="7" fill="#58A6FF" stroke="#161B22" stroke-width="1.5"/>
<circle cx="85" cy="207" r="7" fill="#58A6FF" stroke="#161B22" stroke-width="1.5"/>
<circle cx="91" cy="207" r="7" fill="#58A6FF" stroke="#161B22" stroke-width="1.5"/>
<circle cx="91" cy="144" r="7" fill="#58A6FF" stroke="#161B22" stroke-width="1.5"/>
<circle cx="83" cy="193" r="7" fill="#58A6FF" stroke="#161B22" stroke-width="1.5"/>
<circle cx="83" cy="105" r="7" fill="#58A6FF" stroke="#161B22" stroke-width="1.5"/>
<circle cx="83" cy="140" r="7" fill="#58A6FF" stroke="#161B22" stroke-width="1.5"/>
<circle cx="83" cy="105" r="7" fill="#58A6FF" stroke="#161B22" stroke-width="1.5"/>
<circle cx="83" cy="176" r="7" fill="#58A6FF" stroke="#161B22" stroke-width="1.5"/>
<line x1="98" y1="110" x2="53" y2="135" stroke="#58A6FF" stroke-width="1" stroke-dasharray="2,2" opacity="0.6"/>
<rect x="38" y="133" width="140" height="26" fill="#1C2128" rx="4" stroke="#58A6FF" stroke-width="1"/>
<text x="108" y="148" text-anchor="middle" font-family="system-ui,-apple-system,'Segoe UI',sans-serif" font-size="9" font-weight="normal" fill="#58A6FF">Gemma cluster (cheap+fast)</text>
<rect x="558" y="152" width="180" height="22" fill="#1C2128" rx="4" stroke="#FF7B54" stroke-width="1"/>
<text x="648" y="166" text-anchor="middle" font-family="system-ui,-apple-system,'Segoe UI',sans-serif" font-size="9" font-weight="normal" fill="#FF7B54">Qwen 12-balls: $0.01034, 76s</text>
<circle cx="290" cy="476" r="7" fill="#58A6FF" stroke="#161B22" stroke-width="1.5"/>
<text x="303" y="481" text-anchor="start" font-family="system-ui,-apple-system,'Segoe UI',sans-serif" font-size="11" font-weight="normal" fill="#8B949E">Gemma 4 26B MoE (15 calls)</text>
<circle cx="490" cy="476" r="7" fill="#FF7B54" stroke="#161B22" stroke-width="1.5"/>
<text x="503" y="481" text-anchor="start" font-family="system-ui,-apple-system,'Segoe UI',sans-serif" font-size="11" font-weight="normal" fill="#8B949E">Qwen 3.5 27B (15 calls, 0 failures)</text>
</svg>
